<svg width="222" height="44" viewBox="0 0 222 44" fill="none" xmlns="http://www.w3.org/2000/svg">
<g clip-path="url(#clip0)">
<path d="M77.2011 16.9712C78.8849 18.6204 79.7262 21.0568 79.7247 24.2802V36.9264H73.3204V25.265C73.3204 23.5133 72.9373 22.206 72.1712 21.3432C71.405 20.4803 70.2961 20.0474 68.8446 20.0446C67.23 20.0446 65.9436 20.5438 64.9855 21.5423C64.0275 22.5408 63.5484 24.0277 63.5484 26.003V36.9264H57.142V6.45898H63.5484V17.1357C64.4223 16.2716 65.473 15.607 66.6283 15.1878C67.8876 14.7261 69.2197 14.4952 70.5609 14.506C73.3024 14.506 75.5158 15.3277 77.2011 16.9712Z" fill="#343949"/>
<path d="M107.277 27.6868H90.5659C90.8316 29.0038 91.5963 30.1671 92.7 30.9333C93.8225 31.7269 95.2185 32.1237 96.888 32.1237C97.9309 32.1423 98.9684 31.9684 99.9483 31.6108C100.877 31.2426 101.722 30.6913 102.433 29.9897L105.84 33.682C103.759 36.0642 100.72 37.2554 96.7235 37.2554C94.2345 37.2554 92.0312 36.7691 90.1136 35.7966C88.2801 34.8993 86.7414 33.4965 85.6788 31.7536C84.6245 29.9788 84.0843 27.9458 84.1183 25.8817C84.0909 23.8299 84.6237 21.8095 85.6593 20.038C86.6648 18.315 88.1289 16.9048 89.8885 15.9647C91.7242 15.0168 93.7582 14.517 95.8242 14.506C97.8902 14.4951 99.9294 14.9735 101.775 15.902C103.506 16.8141 104.938 18.2038 105.902 19.906C106.901 21.6461 107.4 23.6662 107.4 25.9661C107.4 26.0469 107.359 26.6205 107.277 27.6868ZM92.2909 20.5834C91.304 21.4059 90.7015 22.5285 90.4837 23.9511H101.364C101.198 22.6514 100.557 21.4593 99.5631 20.6051C98.551 19.7612 97.2658 19.3156 95.9486 19.3519C94.4956 19.3519 93.2764 19.7624 92.2909 20.5834Z" fill="#343949"/>
<path d="M127.849 16.9494C129.683 18.5799 130.6 21.0372 130.6 24.3212V36.9263H124.604V34.1754C123.401 36.2272 121.157 37.2539 117.871 37.2553C116.174 37.2553 114.703 36.9667 113.456 36.3896C112.296 35.8871 111.305 35.0605 110.603 34.0088C109.942 32.9812 109.599 31.7808 109.619 30.5588C109.619 28.507 110.391 26.8924 111.937 25.715C113.482 24.5376 115.871 23.9489 119.103 23.9489H124.195C124.195 22.5536 123.771 21.4794 122.921 20.7262C122.071 19.973 120.798 19.5964 119.103 19.5964C117.926 19.597 116.758 19.784 115.64 20.1505C114.593 20.4739 113.612 20.9819 112.744 21.6504L110.439 17.1767C111.757 16.2751 113.222 15.608 114.768 15.205C116.459 14.7379 118.207 14.5027 119.962 14.5059C123.389 14.5059 126.018 15.3204 127.849 16.9494ZM122.388 32.1842C123.237 31.6765 123.878 30.8832 124.195 29.9463V27.6867H119.802C117.173 27.6867 115.858 28.5525 115.858 30.284C115.847 30.663 115.929 31.0391 116.097 31.3789C116.265 31.7186 116.515 32.0116 116.824 32.2319C117.467 32.7109 118.35 32.9504 119.473 32.9504C120.496 32.9672 121.505 32.7022 122.388 32.1842Z" fill="#343949"/>
<path d="M136.389 6.45898H142.794V36.9264H136.389V6.45898Z" fill="#343949"/>
<path d="M152.999 35.7966C151.209 34.8765 149.71 33.4767 148.67 31.7536C147.616 29.9788 147.075 27.9458 147.109 25.8818C147.075 23.8176 147.615 21.7846 148.67 20.0099C149.709 18.2857 151.208 16.885 152.999 15.9647C154.943 15.005 157.082 14.5059 159.25 14.5059C161.418 14.5059 163.558 15.005 165.502 15.9647C167.285 16.8894 168.777 18.2894 169.813 20.0099C170.867 21.785 171.407 23.8178 171.374 25.8818C171.407 27.9457 170.867 29.9784 169.813 31.7536C168.776 33.473 167.284 34.8722 165.502 35.7966C163.558 36.7563 161.418 37.2555 159.25 37.2555C157.082 37.2555 154.943 36.7563 152.999 35.7966ZM163.305 30.336C164.357 29.2278 164.884 27.7431 164.885 25.8818C164.887 24.0204 164.36 22.535 163.305 21.4254C162.25 20.3172 160.902 19.7632 159.26 19.7632C157.618 19.7632 156.26 20.3172 155.187 21.4254C154.119 22.5335 153.585 24.019 153.585 25.8818C153.585 27.7445 154.119 29.2293 155.187 30.336C156.254 31.4441 157.609 31.9982 159.251 31.9982C160.893 31.9982 162.245 31.4441 163.305 30.336Z" fill="#343949"/>
<path d="M196.958 14.835L187.632 36.9264H181.022L171.742 14.835H178.345L184.464 29.8642L190.794 14.835H196.958Z" fill="#343949"/>
<path d="M203.216 35.7966C201.425 34.8777 199.926 33.4776 198.887 31.7536C197.833 29.9788 197.292 27.9458 197.326 25.8818C197.292 23.8176 197.832 21.7846 198.887 20.0099C199.925 18.2851 201.424 16.8842 203.216 15.9647C205.16 15.005 207.299 14.5059 209.467 14.5059C211.636 14.5059 213.775 15.005 215.719 15.9647C217.502 16.8894 218.994 18.2894 220.03 20.0099C221.084 21.785 221.624 23.8178 221.591 25.8818C221.624 27.9457 221.084 29.9784 220.03 31.7536C218.993 33.473 217.501 34.8722 215.719 35.7966C213.775 36.7563 211.636 37.2555 209.467 37.2555C207.299 37.2555 205.16 36.7563 203.216 35.7966ZM213.522 30.336C214.577 29.2278 215.104 27.7431 215.102 25.8818C215.101 24.0204 214.574 22.535 213.522 21.4254C212.467 20.3172 211.119 19.7632 209.477 19.7632C207.835 19.7632 206.48 20.3172 205.412 21.4254C204.346 22.5335 203.812 24.019 203.811 25.8818C203.809 27.7445 204.343 29.2293 205.412 30.336C206.48 31.4441 207.835 31.9982 209.477 31.9982C211.119 31.9982 212.467 31.4441 213.522 30.336Z" fill="#343949"/>
</g>
<path d="M44.9281 10.4885C43.3395 8.90363 41.1871 8.01358 38.9431 8.01358C36.6991 8.01358 34.5467 8.90363 32.9581 10.4885L23.4771 19.9694L13.9962 10.4885C13.5772 10.0562 13.3449 9.47643 13.3496 8.87436C13.3543 8.2723 13.5955 7.69623 14.0213 7.27049C14.447 6.84476 15.0231 6.60351 15.6252 6.59882C16.2272 6.59413 16.807 6.82637 17.2393 7.24543L23.9572 13.9618L28.3214 9.5976C28.3214 9.5976 34.4268 2.59225 38.4239 4.43727C38.4239 4.43727 33.1718 -1.93752 27.3839 2.13325L23.9692 5.24239L21.608 2.87969C20.8219 2.09333 19.8885 1.46952 18.8613 1.04387C17.834 0.618217 16.733 0.399066 15.6211 0.398926C13.3754 0.398644 11.2216 1.29046 9.63349 2.87818C8.04537 4.46591 7.15301 6.61948 7.15273 8.86515C7.15244 11.1108 8.04426 13.2646 9.63198 14.8527L23.4771 28.6979L37.3223 14.8527C37.7561 14.4401 38.334 14.2133 38.9327 14.2208C39.5314 14.2283 40.1034 14.4695 40.5268 14.8928C40.9501 15.3162 41.1913 15.8882 41.1988 16.4869C41.2063 17.0856 40.9795 17.6635 40.5669 18.0973L23.8218 34.8394L7.07364 18.0958L7.01044 18.0507C7.01044 18.0507 3.11272 14.77 3.28729 9.7526C3.28729 9.7526 -2.33354 14.5186 1.12474 20.7174L2.66125 22.4059L2.71543 22.4585L19.459 39.2021L19.4244 39.2368L23.7887 43.601L23.8233 43.5664L23.8579 43.601L28.2221 39.2368L28.1875 39.2021L44.9281 22.4585C46.5126 20.8697 47.4024 18.7174 47.4024 16.4735C47.4024 14.2296 46.5126 12.0773 44.9281 10.4885Z" fill="#2D50EF"/>
<defs>
<clipPath id="clip0">
<rect width="164.449" height="30.7964" fill="white" transform="translate(57.142 6.45898)"/>
</clipPath>
</defs>
</svg>
