<svg width="832" height="162" viewBox="0 0 832 162" fill="none" xmlns="http://www.w3.org/2000/svg">
<g clip-path="url(#clip0)">
<path d="M290.157 62.1355C296.471 68.319 299.625 77.4535 299.619 89.5391V136.954H275.608V93.2313C275.608 86.6637 274.171 81.7624 271.299 78.5273C268.426 75.2923 264.269 73.6693 258.826 73.6585C252.773 73.6585 247.95 75.5303 244.358 79.2739C240.766 83.0175 238.97 88.5923 238.97 95.9984V136.954H214.95V22.7222H238.97V62.7523C242.246 59.5124 246.186 57.0208 250.517 55.449C255.238 53.7181 260.233 52.8522 265.261 52.8928C275.54 52.8928 283.839 55.9737 290.157 62.1355Z" fill="#E5E5E5"/>
<path d="M402.92 102.312H340.266C341.262 107.25 344.129 111.611 348.267 114.484C352.476 117.459 357.71 118.947 363.969 118.947C367.88 119.017 371.77 118.365 375.444 117.024C378.925 115.644 382.094 113.577 384.759 110.946L397.532 124.79C389.731 133.721 378.338 138.187 363.353 138.187C354.021 138.187 345.76 136.364 338.57 132.718C331.696 129.354 325.927 124.094 321.943 117.559C317.99 110.905 315.965 103.283 316.092 95.5441C315.99 87.8512 317.987 80.2761 321.87 73.6343C325.64 67.174 331.129 61.8871 337.726 58.3623C344.609 54.8083 352.235 52.9342 359.981 52.8933C367.727 52.8524 375.373 54.6458 382.292 58.127C388.781 61.5468 394.152 66.7572 397.767 73.1393C401.511 79.6635 403.383 87.2373 403.383 95.8606C403.383 96.1635 403.229 98.3139 402.92 102.312ZM346.734 75.6792C343.033 78.7628 340.775 82.9716 339.958 88.3057H380.751C380.129 83.4328 377.724 78.963 373.999 75.7603C370.205 72.5963 365.386 70.9256 360.448 71.0619C355 71.0619 350.429 72.601 346.734 75.6792Z" fill="#E5E5E5"/>
<path d="M480.051 62.0548C486.927 68.1679 490.365 77.3808 490.365 89.6936V136.954H467.887V126.64C463.375 134.333 454.96 138.182 442.642 138.187C436.28 138.187 430.762 137.105 426.088 134.941C421.738 133.058 418.024 129.958 415.393 126.015C412.912 122.163 411.627 117.662 411.7 113.08C411.7 105.388 414.597 99.3339 420.391 94.9195C426.185 90.5051 435.141 88.2979 447.259 88.2979H466.353C466.353 83.0666 464.76 79.0389 461.574 76.215C458.387 73.3911 453.616 71.9791 447.259 71.9791C442.849 71.9812 438.467 72.6823 434.276 74.0565C430.35 75.2692 426.673 77.1736 423.418 79.68L414.776 62.9068C419.72 59.5264 425.21 57.0254 431.005 55.5143C437.349 53.7629 443.9 52.8811 450.481 52.8932C463.329 52.8932 473.186 55.947 480.051 62.0548ZM459.578 119.175C462.761 117.271 465.162 114.296 466.353 110.784V102.312H449.88C440.024 102.312 435.095 105.558 435.095 112.05C435.051 113.471 435.359 114.881 435.99 116.155C436.621 117.429 437.557 118.527 438.714 119.353C441.127 121.149 444.438 122.047 448.647 122.047C452.485 122.11 456.266 121.116 459.578 119.175Z" fill="#E5E5E5"/>
<path d="M512.072 22.7222H536.083V136.954H512.072V22.7222Z" fill="#E5E5E5"/>
<path d="M574.344 132.718C567.633 129.269 562.014 124.02 558.115 117.56C554.162 110.906 552.136 103.284 552.264 95.5447C552.135 87.8057 554.161 80.1833 558.115 73.5294C562.011 67.0648 567.631 61.8131 574.344 58.3629C581.634 54.7647 589.654 52.8931 597.784 52.8931C605.913 52.8931 613.934 54.7647 621.223 58.3629C627.908 61.8295 633.503 67.0788 637.388 73.5294C641.338 80.1848 643.364 87.8061 643.239 95.5447C643.362 103.283 641.337 110.904 637.388 117.56C633.5 124.007 627.906 129.253 621.223 132.718C613.934 136.317 605.913 138.188 597.784 138.188C589.654 138.188 581.634 136.317 574.344 132.718ZM612.987 112.245C616.931 108.09 618.905 102.523 618.911 95.5447C618.916 88.566 616.941 82.9966 612.987 78.8364C609.032 74.6816 603.977 72.6043 597.82 72.6043C591.664 72.6043 586.573 74.6816 582.548 78.8364C578.545 82.9912 576.543 88.5606 576.543 95.5447C576.543 102.529 578.545 108.096 582.548 112.245C586.552 116.4 591.631 118.477 597.788 118.477C603.944 118.477 609.011 116.4 612.987 112.245Z" fill="#E5E5E5"/>
<path d="M739.163 54.126L704.197 136.953H679.414L644.618 54.126H669.376L692.317 110.475L716.052 54.126H739.163Z" fill="#E5E5E5"/>
<path d="M762.623 132.718C755.909 129.273 750.288 124.024 746.393 117.56C742.441 110.906 740.415 103.284 740.543 95.5447C740.414 87.8057 742.439 80.1833 746.393 73.5294C750.287 67.0626 755.908 61.8102 762.623 58.3629C769.913 54.7647 777.933 52.8931 786.062 52.8931C794.192 52.8931 802.212 54.7647 809.502 58.3629C816.187 61.8295 821.781 67.0788 825.666 73.5294C829.617 80.1848 831.642 87.8061 831.517 95.5447C831.641 103.283 829.616 110.904 825.666 117.56C821.779 124.007 816.185 129.253 809.502 132.718C802.212 136.317 794.192 138.188 786.062 138.188C777.933 138.188 769.913 136.317 762.623 132.718ZM801.265 112.245C805.22 108.09 807.195 102.523 807.189 95.5447C807.184 88.566 805.209 82.9966 801.265 78.8364C797.311 74.6816 792.255 72.6043 786.099 72.6043C779.943 72.6043 774.863 74.6816 770.859 78.8364C766.862 82.9912 764.86 88.5606 764.854 95.5447C764.849 102.529 766.851 108.096 770.859 112.245C774.863 116.4 779.943 118.477 786.099 118.477C792.255 118.477 797.311 116.4 801.265 112.245Z" fill="#E5E5E5"/>
</g>
<path d="M169.157 37.8288C163.2 31.8867 155.13 28.5496 146.717 28.5496C138.304 28.5496 130.234 31.8867 124.277 37.8288L88.7307 73.3755L53.184 37.8288C51.6128 36.2079 50.742 34.0342 50.7596 31.7769C50.7772 29.5196 51.6817 27.3597 53.2779 25.7635C54.8741 24.1673 57.034 23.2628 59.2913 23.2452C61.5486 23.2276 63.7223 24.0984 65.3432 25.6695L90.5306 50.8513L106.893 34.4885C106.893 34.4885 129.784 8.22342 144.77 15.1409C144.77 15.1409 125.079 -8.76003 103.378 6.50251L90.5758 18.1596L81.7229 9.30111C78.7754 6.35282 75.276 4.01396 71.4245 2.41807C67.5731 0.822186 63.445 0.000524191 59.276 2.5107e-07C50.8564 -0.00105789 42.7811 3.34262 36.8268 9.29547C30.8725 15.2483 27.5268 23.3227 27.5257 31.7424C27.5246 40.162 30.8683 48.2372 36.8212 54.1916L88.7307 106.101L140.64 54.1916C142.267 52.6445 144.433 51.7943 146.678 51.8224C148.923 51.8505 151.067 52.7547 152.655 54.342C154.242 55.9293 155.146 58.074 155.174 60.3186C155.202 62.5632 154.352 64.7299 152.805 66.3565L90.0228 129.128L27.2292 66.3508L26.9922 66.1816C26.9922 66.1816 12.3785 53.8813 13.0331 35.0697C13.0331 35.0697 -8.04109 52.939 4.92501 76.1798L10.6858 82.5105L10.889 82.708L73.6657 145.485L73.5359 145.614L89.8987 161.977L90.0284 161.847L90.1582 161.977L106.521 145.614L106.391 145.485L169.157 82.708C175.097 76.751 178.434 68.6814 178.434 60.2684C178.434 51.8554 175.097 43.7858 169.157 37.8288Z" fill="#2D50EF"/>
<defs>
<clipPath id="clip0">
<rect width="616.567" height="115.465" fill="white" transform="translate(214.95 22.7222)"/>
</clipPath>
</defs>
</svg>
